<?xml version="1.0" ?><svg data-name="Layer 1" id="Layer_1" viewBox="0 0 100 100" xmlns="http://www.w3.org/2000/svg"><title/><path d="M73.84,51.78a9.21,9.21,0,0,1-5.15-1.48L61,44.87a18.39,18.39,0,0,0-6.58-2.62l-6.8-1a1.5,1.5,0,0,1,.43-3l6.8,1a21.29,21.29,0,0,1,7.88,3.14l7.71,5.43a6.46,6.46,0,0,0,5.48.56l6.93-3A1.5,1.5,0,1,1,84,48.16l-6.93,3A8.26,8.26,0,0,1,73.84,51.78Z"/><path d="M32,63.78a4.85,4.85,0,0,1-2-.48L18.79,58.12a4.33,4.33,0,0,1-1.48-7l2.89-3.28a29.1,29.1,0,0,1,6.53-5.27l3.83-2.13a19.66,19.66,0,0,1,7.3-2.28,7.37,7.37,0,0,0,4.22-2l2.12-2.31a1.5,1.5,0,0,1,2.21,2l-2.12,2.31A10.3,10.3,0,0,1,38,41.11,17,17,0,0,0,32,43l-3.83,2.13a26.45,26.45,0,0,0-5.74,4.63l-2.89,3.28a1.35,1.35,0,0,0,.49,2.34l11.16,5.18a1.29,1.29,0,0,0,1.15.1,1.3,1.3,0,0,0,.41-1.08l0.12-8a1.53,1.53,0,0,1,1.52-1.48,1.5,1.5,0,0,1,1.48,1.52l-0.12,8A4.15,4.15,0,0,1,34,63.23,3.67,3.67,0,0,1,32,63.78Z"/><path d="M65.62,62.16a1.5,1.5,0,0,1-.87-2.72l3.92-2.8a9.65,9.65,0,0,1,8.4-1L84,58.43a1.5,1.5,0,0,1-1.12,2.78l-6.92-2.79a6.65,6.65,0,0,0-5.53.66l-3.92,2.8A1.49,1.49,0,0,1,65.62,62.16Z"/><path d="M61.85,66.66a1.49,1.49,0,0,1-.91-0.31l-2-1.56a8.88,8.88,0,0,0-4.41-1.25H51.2a1.5,1.5,0,1,1,0-3h3.3a11.55,11.55,0,0,1,6.24,1.88l2,1.56A1.5,1.5,0,0,1,61.85,66.66Z"/><path d="M46.84,65.75a1.49,1.49,0,0,1-.92-0.31l-1.43-1.11a7.15,7.15,0,0,0-3.33-.79H38.34a1.5,1.5,0,0,1,0-3h2.82A9.73,9.73,0,0,1,46.33,62l1.43,1.11A1.5,1.5,0,0,1,46.84,65.75Z"/><circle cx="27.21" cy="50.67" r="2.23"/><path d="M44.8,60.14a1.5,1.5,0,0,1-.65-2.85L44.67,57H39.31a1.5,1.5,0,0,1,0-3h9.11c1.58,0,2.5.52,2.73,1.53s-0.37,1.88-1.8,2.56L45.44,60A1.49,1.49,0,0,1,44.8,60.14Zm4.1-3.07h0Z"/></svg>